<svg width="66" height="89" viewBox="0 0 66 89" fill="none" xmlns="http://www.w3.org/2000/svg">
<g clip-path="url(#clip0_2_212)">
<path d="M54.309 29.629H49.876V37.516H54.309V29.629Z" fill="#BA6645"/>
<path d="M15.288 29.629H10.855V37.516H15.288V29.629Z" fill="#BA6645"/>
<path d="M55.141 76.773V87.532C55.141 87.7027 55.1074 87.8718 55.042 88.0295C54.9767 88.1872 54.8809 88.3305 54.7602 88.4512C54.6395 88.572 54.4962 88.6677 54.3385 88.733C54.1808 88.7984 54.0117 88.832 53.841 88.832H11.321C10.9762 88.832 10.6456 88.695 10.4018 88.4512C10.158 88.2075 10.021 87.8768 10.021 87.532V76.773C10.0268 72.1679 11.8589 67.7531 15.1154 64.497C18.3719 61.2409 22.7869 59.4093 27.392 59.404H37.77C42.3751 59.4093 46.7901 61.2409 50.0466 64.497C53.3031 67.7531 55.1352 72.1679 55.141 76.773V76.773Z" fill="#28A745"/>
<path d="M37.7701 59.403H36.452C43.597 59.403 49.41 67.195 49.41 76.773V87.528C49.41 88.247 48.975 88.828 48.439 88.828H53.8391C54.0098 88.828 54.1788 88.7944 54.3365 88.729C54.4942 88.6637 54.6376 88.568 54.7583 88.4473C54.879 88.3265 54.9747 88.1832 55.0401 88.0255C55.1054 87.8678 55.139 87.6987 55.139 87.528V76.773C55.1337 72.168 53.3021 67.7531 50.046 64.4967C46.7898 61.2404 42.3751 59.4086 37.7701 59.403Z" fill="#28A745"/>
<path d="M10.469 37.516H54.693C55.7167 37.516 56.6985 37.9227 57.4224 38.6466C58.1463 39.3705 58.553 40.3523 58.553 41.376V41.376C58.553 42.3997 58.1463 43.3815 57.4224 44.1054C56.6985 44.8293 55.7167 45.236 54.693 45.236H10.469C9.44527 45.236 8.46347 44.8293 7.73958 44.1054C7.01569 43.3815 6.60901 42.3997 6.60901 41.376V41.376C6.60901 40.3523 7.01569 39.3705 7.73958 38.6466C8.46347 37.9227 9.44527 37.516 10.469 37.516V37.516Z" fill="#FFD2C0"/>
<path d="M26.817 53.265V61.703C26.837 63.2174 27.4526 64.663 28.5305 65.7268C29.6084 66.7906 31.062 67.3871 32.5765 67.3871C34.091 67.3871 35.5446 66.7906 36.6225 65.7268C37.7005 64.663 38.3161 63.2174 38.336 61.703V53.265H26.817Z" fill="#F4AE98"/>
<path d="M50.739 79.732V88.832H14.422V79.732C14.4217 79.5096 14.4785 79.2909 14.5869 79.0968C14.6952 78.9026 14.8516 78.7395 15.041 78.623L17.467 77.131V73.645C17.467 73.3002 17.604 72.9696 17.8478 72.7258C18.0916 72.482 18.4222 72.345 18.767 72.345H46.392C46.7368 72.345 47.0674 72.482 47.3112 72.7258C47.555 72.9696 47.692 73.3002 47.692 73.645V77.131L50.118 78.623C50.3078 78.7393 50.4645 78.9023 50.5733 79.0964C50.682 79.2906 50.7391 79.5094 50.739 79.732V79.732Z" fill="#FABE2C"/>
<path d="M42.32 77.474C42.1493 77.474 41.9803 77.4404 41.8225 77.375C41.6648 77.3097 41.5215 77.214 41.4008 77.0932C41.2801 76.9725 41.1843 76.8292 41.119 76.6715C41.0537 76.5138 41.02 76.3447 41.02 76.174V59.69C41.02 59.3452 41.157 59.0146 41.4008 58.7708C41.6446 58.527 41.9753 58.39 42.32 58.39C42.6648 58.39 42.9955 58.527 43.2393 58.7708C43.4831 59.0146 43.62 59.3452 43.62 59.69V76.172C43.6203 76.3429 43.5869 76.5121 43.5216 76.6701C43.4564 76.828 43.3607 76.9716 43.24 77.0925C43.1192 77.2135 42.9758 77.3094 42.818 77.3749C42.6601 77.4403 42.4909 77.474 42.32 77.474V77.474Z" fill="#FF9100"/>
<path d="M22.841 77.474C22.4962 77.474 22.1656 77.337 21.9218 77.0932C21.678 76.8494 21.541 76.5188 21.541 76.174V59.69C21.541 59.3452 21.678 59.0146 21.9218 58.7708C22.1656 58.527 22.4962 58.39 22.841 58.39C23.1858 58.39 23.5165 58.527 23.7603 58.7708C24.0041 59.0146 24.141 59.3452 24.141 59.69V76.172C24.1413 76.3429 24.1078 76.5121 24.0426 76.6701C23.9774 76.828 23.8817 76.9716 23.761 77.0925C23.6402 77.2135 23.4968 77.3094 23.339 77.3749C23.1811 77.4403 23.0119 77.474 22.841 77.474V77.474Z" fill="#FF9100"/>
<path d="M49.875 28.327H15.287C14.9422 28.327 14.6116 28.464 14.3678 28.7078C14.124 28.9516 13.987 29.2822 13.987 29.627V39.507C14.0939 44.368 16.1001 48.9939 19.5758 52.3939C23.0514 55.794 27.7203 57.6979 32.5825 57.6979C37.4447 57.6979 42.1136 55.794 45.5892 52.3939C49.0649 48.9939 51.0711 44.368 51.178 39.507V29.627C51.178 29.456 51.1443 29.2867 51.0788 29.1288C51.0132 28.9709 50.9172 28.8275 50.7962 28.7067C50.6752 28.5859 50.5315 28.4903 50.3734 28.4251C50.2153 28.3599 50.046 28.3266 49.875 28.327Z" fill="#FFD2C0"/>
<path d="M49.8751 28.327H45.544C46.083 28.327 46.519 28.91 46.519 29.627V39.507C46.519 49.76 40.2661 58.107 32.5811 58.107C37.5128 58.1028 42.2413 56.1418 45.7285 52.6545C49.2158 49.1672 51.1768 44.4387 51.1811 39.507V29.627C51.1811 29.4558 51.1472 29.2862 51.0815 29.1281C51.0158 28.97 50.9195 28.8264 50.7982 28.7056C50.6768 28.5848 50.5328 28.4892 50.3744 28.4242C50.216 28.3592 50.0463 28.3262 49.8751 28.327Z" fill="#F4AE98"/>
<path d="M41.0711 38.401C40.9854 38.401 40.8999 38.3923 40.816 38.375C40.7329 38.3587 40.6515 38.3342 40.5731 38.302C40.4941 38.2694 40.4184 38.2292 40.3471 38.182C40.2754 38.1341 40.2084 38.0795 40.147 38.019C39.9042 37.7743 39.7676 37.4437 39.7671 37.099C39.7664 37.0141 39.7744 36.9293 39.7911 36.846C39.8246 36.6788 39.8905 36.5199 39.9851 36.378C40.0318 36.3061 40.0858 36.2391 40.1461 36.178C40.2075 36.1175 40.2744 36.0629 40.346 36.015C40.4174 35.9678 40.4931 35.9277 40.5721 35.895C40.7496 35.821 40.9413 35.7874 41.1335 35.7964C41.3256 35.8055 41.5133 35.8571 41.6831 35.9475C41.8529 36.0379 42.0004 36.1649 42.1152 36.3192C42.23 36.4736 42.3091 36.6514 42.3468 36.84C42.3845 37.0286 42.3799 37.2233 42.3334 37.4099C42.2868 37.5965 42.1993 37.7704 42.0774 37.9192C41.9555 38.0679 41.802 38.1878 41.6282 38.27C41.4543 38.3523 41.2644 38.395 41.0721 38.395L41.0711 38.401Z" fill="black"/>
<path d="M24.089 38.401C24.004 38.4009 23.9193 38.3922 23.836 38.375C23.7529 38.3586 23.6715 38.3342 23.593 38.302C23.514 38.2693 23.4383 38.2292 23.367 38.182C23.2954 38.1341 23.2284 38.0795 23.167 38.019C22.9231 37.7748 22.7858 37.4441 22.785 37.099C22.7851 37.0133 22.7938 36.9279 22.811 36.844C22.8284 36.7608 22.8535 36.6795 22.886 36.601C22.9187 36.5226 22.9589 36.4476 23.006 36.377C23.0528 36.3051 23.1068 36.2381 23.167 36.177C23.2284 36.1165 23.2954 36.0619 23.367 36.014C23.4384 35.9669 23.514 35.9267 23.593 35.894C23.831 35.7965 24.0925 35.7714 24.3447 35.8217C24.5969 35.8721 24.8287 35.9956 25.011 36.177C25.0713 36.2381 25.1252 36.3051 25.172 36.377C25.2191 36.4476 25.2593 36.5226 25.292 36.601C25.3246 36.6795 25.3497 36.7608 25.367 36.844C25.3994 37.0125 25.3994 37.1855 25.367 37.354C25.3497 37.4372 25.3246 37.5185 25.292 37.597C25.2593 37.6754 25.2192 37.7504 25.172 37.821C25.1252 37.8929 25.0713 37.9599 25.011 38.021C24.9496 38.0815 24.8827 38.1361 24.811 38.184C24.7397 38.2312 24.664 38.2713 24.585 38.304C24.5066 38.3362 24.4252 38.3606 24.342 38.377C24.2587 38.3935 24.1739 38.4015 24.089 38.401Z" fill="black"/>
<path d="M37.785 81.054H27.374C27.0293 81.054 26.6986 80.917 26.4548 80.6732C26.211 80.4295 26.074 80.0988 26.074 79.754C26.074 79.4092 26.211 79.0786 26.4548 78.8348C26.6986 78.591 27.0293 78.454 27.374 78.454H37.784C38.1288 78.454 38.4595 78.591 38.7033 78.8348C38.9471 79.0786 39.084 79.4092 39.084 79.754C39.084 80.0988 38.9471 80.4295 38.7033 80.6732C38.4595 80.917 38.1288 81.054 37.784 81.054H37.785Z" fill="#FF9100"/>
<path d="M32.581 49.191C31.5525 49.191 30.5661 48.7824 29.8389 48.0552C29.1116 47.3279 28.703 46.3415 28.703 45.313V42.891H36.458V45.316C36.4572 46.3438 36.0484 47.3293 35.3215 48.0559C34.5945 48.7825 33.6088 49.1907 32.581 49.191V49.191Z" fill="#E1EEF7"/>
<path d="M64.655 28.6L54.401 20.685L49.52 0.988001C49.4503 0.705825 49.2879 0.455168 49.059 0.276073C48.83 0.0969785 48.5477 -0.000221288 48.257 1.22226e-06H38.523C38.3304 -0.000115042 38.1401 0.0425809 37.966 0.125001L32.581 2.676L27.197 0.125001C27.0226 0.0424362 26.832 -0.000263377 26.639 1.22226e-06H16.905C16.6143 -0.000221288 16.332 0.0969785 16.103 0.276073C15.8741 0.455168 15.7118 0.705825 15.642 0.988001L10.761 20.688L0.507013 28.6C0.291008 28.7655 0.132368 28.9945 0.0534455 29.2549C-0.0254772 29.5153 -0.0207044 29.7939 0.0670945 30.0515C0.154893 30.309 0.321293 30.5325 0.542841 30.6905C0.764389 30.8485 1.02992 30.9329 1.30202 30.932H63.86C64.1321 30.9329 64.3976 30.8485 64.6192 30.6905C64.8407 30.5325 65.0071 30.309 65.0949 30.0515C65.1827 29.7939 65.1875 29.5153 65.1086 29.2549C65.0297 28.9945 64.871 28.7655 64.655 28.6V28.6Z" fill="#F4BD7A"/>
<path d="M10.761 20.685H54.401L53.756 18.085H11.406L10.761 20.685Z" fill="#FF9100"/>
<path d="M53.756 18.082H47.244L47.691 20.682H54.402L53.756 18.082Z" fill="#FF9100"/>
</g>
<defs>
<clipPath id="clip0_2_212">
<rect width="65.161" height="88.833" fill="white"/>
</clipPath>
</defs>
</svg>
