<svg width="95" height="75" viewBox="0 0 95 75" fill="none" xmlns="http://www.w3.org/2000/svg">
<g clip-path="url(#clip0_2_158)">
<path d="M30.708 65.072H35.79V74.833H30.708C29.8986 74.833 29.1223 74.5114 28.5499 73.9391C27.9776 73.3667 27.656 72.5904 27.656 71.781V68.124C27.656 67.3146 27.9776 66.5383 28.5499 65.9659C29.1223 65.3936 29.8986 65.072 30.708 65.072V65.072Z" fill="#FABE2C"/>
<path d="M35.79 65.072H39.044L46.265 60.257C46.9386 59.8082 47.7628 59.6452 48.5564 59.8041C49.3501 59.9629 50.0481 60.4305 50.497 61.104L50.67 61.363C51.0614 61.95 51.2374 62.6545 51.1679 63.3566C51.0984 64.0587 50.7879 64.7151 50.289 65.214L48.804 66.699H55.311L60.949 63.316C61.625 62.9104 62.4316 62.7821 63.2 62.9579C63.9684 63.1337 64.639 63.6001 65.0714 64.2592C65.5037 64.9184 65.6642 65.7192 65.5193 66.4941C65.3744 67.2689 64.9353 67.9576 64.294 68.416L55.311 74.833H35.79V65.072Z" fill="#FEDAB0"/>
<path d="M63.6469 9.761H58.5649V0H63.6469C64.0477 0 64.4446 0.0789423 64.8149 0.23232C65.1852 0.385697 65.5216 0.610506 65.805 0.89391C66.0884 1.17731 66.3132 1.51376 66.4666 1.88405C66.62 2.25434 66.6989 2.65121 66.6989 3.052V6.709C66.6989 7.10979 66.62 7.50666 66.4666 7.87695C66.3132 8.24724 66.0884 8.58369 65.805 8.86709C65.5216 9.15049 65.1852 9.3753 64.8149 9.52868C64.4446 9.68206 64.0477 9.761 63.6469 9.761V9.761Z" fill="#FF9100"/>
<path d="M58.565 9.761H55.311L48.09 14.576C47.4165 15.0248 46.5922 15.1877 45.7986 15.0289C45.0049 14.8701 44.3069 14.4025 43.858 13.729L43.685 13.47C43.2936 12.883 43.1177 12.1785 43.1871 11.4764C43.2566 10.7743 43.5672 10.1179 44.066 9.619L45.551 8.134H39.043L33.405 11.517C32.7291 11.9226 31.9224 12.0509 31.154 11.8751C30.3856 11.6992 29.715 11.2329 29.2827 10.5738C28.8504 9.91465 28.6898 9.11379 28.8347 8.33895C28.9796 7.56411 29.4187 6.87538 30.06 6.417L39.043 0H58.565V9.761Z" fill="#FFD7A8"/>
<path d="M24.403 22.775H69.9491C70.8121 22.775 71.6397 23.1178 72.25 23.7281C72.8602 24.3383 73.203 25.166 73.203 26.029V48.804C73.203 49.667 72.8602 50.4947 72.25 51.1049C71.6397 51.7152 70.8121 52.058 69.9491 52.058H24.403C23.54 52.058 22.7124 51.7152 22.1021 51.1049C21.4919 50.4947 21.149 49.667 21.149 48.804V26.029C21.149 25.166 21.4919 24.3383 22.1021 23.7281C22.7124 23.1178 23.54 22.775 24.403 22.775V22.775Z" fill="#28A745"/>
<path d="M73.207 42.297C70.6183 42.297 68.1355 43.3254 66.305 45.1559C64.4744 46.9865 63.446 49.4692 63.446 52.058H69.953C70.816 52.058 71.6437 51.7152 72.254 51.1049C72.8642 50.4947 73.207 49.667 73.207 48.804V42.297Z" fill="#97DE3D"/>
<path d="M30.91 22.775H24.403C23.54 22.775 22.7124 23.1178 22.1021 23.7281C21.4919 24.3383 21.149 25.166 21.149 26.029V32.536C23.7378 32.536 26.2206 31.5076 28.0511 29.6771C29.8817 27.8465 30.91 25.3638 30.91 22.775V22.775Z" fill="#97DE3D"/>
<path d="M55.311 37.417C55.311 39.0258 54.8339 40.5984 53.9401 41.936C53.0464 43.2736 51.776 44.3162 50.2897 44.9318C48.8034 45.5475 47.1679 45.7086 45.5901 45.3947C44.0123 45.0809 42.5629 44.3062 41.4254 43.1686C40.2878 42.031 39.5131 40.5817 39.1993 39.0039C38.8854 37.426 39.0465 35.7906 39.6621 34.3043C40.2778 32.818 41.3203 31.5476 42.658 30.6538C43.9956 29.76 45.5682 29.283 47.177 29.283C49.3342 29.283 51.4032 30.14 52.9286 31.6654C54.454 33.1908 55.311 35.2597 55.311 37.417Z" fill="#97DE3D"/>
<path d="M63.446 16.268H92.729C93.1605 16.268 93.5743 16.4394 93.8794 16.7445C94.1845 17.0497 94.356 17.4635 94.356 17.895V34.163C94.356 34.5945 94.1845 35.0083 93.8794 35.3135C93.5743 35.6186 93.1605 35.79 92.729 35.79H63.446C63.0145 35.79 62.6006 35.6186 62.2955 35.3135C61.9904 35.0083 61.819 34.5945 61.819 34.163V17.895C61.819 17.4635 61.9904 17.0497 62.2955 16.7445C62.6006 16.4394 63.0145 16.268 63.446 16.268V16.268Z" fill="#28A745"/>
<path d="M81.341 26.029C81.341 26.6726 81.1501 27.3018 80.7925 27.8369C80.4349 28.3721 79.9267 28.7891 79.332 29.0354C78.7374 29.2817 78.0831 29.3461 77.4518 29.2204C76.8206 29.0948 76.2408 28.7848 75.7857 28.3296C75.3307 27.8744 75.0209 27.2945 74.8954 26.6632C74.77 26.0319 74.8345 25.3776 75.081 24.7831C75.3274 24.1885 75.7447 23.6804 76.2799 23.3229C76.8152 22.9655 77.4444 22.7748 78.088 22.775C78.9509 22.7753 79.7783 23.1182 80.3883 23.7284C80.9983 24.3387 81.341 25.1662 81.341 26.029V26.029Z" fill="#97DE3D"/>
<path d="M61.819 22.775C63.5447 22.7747 65.1996 22.0891 66.4198 20.8689C67.6401 19.6486 68.3257 17.9937 68.326 16.268H63.446C63.0145 16.268 62.6006 16.4394 62.2955 16.7445C61.9904 17.0497 61.819 17.4635 61.819 17.895V22.775Z" fill="#97DE3D"/>
<path d="M94.355 22.775C92.6293 22.7747 90.9744 22.0891 89.7542 20.8689C88.5339 19.6486 87.8483 17.9937 87.848 16.268H92.728C93.1595 16.268 93.5734 16.4394 93.8785 16.7445C94.1836 17.0497 94.355 17.4635 94.355 17.895V22.775Z" fill="#97DE3D"/>
<path d="M94.355 29.282C92.6293 29.2823 90.9744 29.9679 89.7542 31.1882C88.5339 32.4084 87.8483 34.0633 87.848 35.789H92.728C92.9417 35.789 93.1533 35.7469 93.3506 35.6652C93.548 35.5834 93.7274 35.4636 93.8785 35.3125C94.0296 35.1614 94.1494 34.982 94.2312 34.7846C94.3129 34.5872 94.355 34.3757 94.355 34.162V29.282Z" fill="#97DE3D"/>
<path d="M61.819 29.282V34.162C61.819 34.3757 61.861 34.5872 61.9428 34.7846C62.0246 34.982 62.1444 35.1614 62.2955 35.3125C62.4466 35.4636 62.6259 35.5834 62.8233 35.6652C63.0207 35.7469 63.2323 35.789 63.446 35.789H68.326C68.3257 34.0633 67.6401 32.4084 66.4198 31.1882C65.1996 29.9679 63.5447 29.2823 61.819 29.282V29.282Z" fill="#97DE3D"/>
<path d="M1.627 39.043H30.909C31.1227 39.043 31.3342 39.0851 31.5316 39.1669C31.729 39.2486 31.9084 39.3685 32.0595 39.5195C32.2105 39.6706 32.3304 39.85 32.4122 40.0474C32.4939 40.2448 32.536 40.4563 32.536 40.67V56.938C32.536 57.3695 32.3646 57.7833 32.0595 58.0885C31.7543 58.3936 31.3405 58.565 30.909 58.565H1.627C1.19549 58.565 0.781659 58.3936 0.476537 58.0885C0.171416 57.7833 0 57.3695 0 56.938L0 40.67C0 40.4563 0.0420836 40.2448 0.123848 40.0474C0.205612 39.85 0.325456 39.6706 0.476537 39.5195C0.627618 39.3685 0.806977 39.2486 1.00437 39.1669C1.20177 39.0851 1.41334 39.043 1.627 39.043V39.043Z" fill="#28A745"/>
<path d="M19.5209 48.805C19.5209 49.4486 19.3301 50.0778 18.9725 50.6129C18.6149 51.1481 18.1066 51.5651 17.512 51.8114C16.9173 52.0577 16.263 52.122 15.6317 51.9964C15.0005 51.8708 14.4207 51.5607 13.9657 51.1056C13.5106 50.6504 13.2008 50.0705 13.0753 49.4392C12.9499 48.8079 13.0145 48.1536 13.2609 47.5591C13.5074 46.9645 13.9246 46.4563 14.4598 46.0989C14.9951 45.7415 15.6243 45.5508 16.2679 45.551C17.1308 45.5513 17.9582 45.8942 18.5682 46.5044C19.1782 47.1146 19.5209 47.9422 19.5209 48.805V48.805Z" fill="#97DE3D"/>
<path d="M0 45.55C1.72568 45.5497 3.38061 44.8641 4.60085 43.6438C5.82109 42.4236 6.50673 40.7687 6.507 39.043H1.627C1.41334 39.043 1.20177 39.0851 1.00437 39.1669C0.806977 39.2486 0.627618 39.3685 0.476537 39.5195C0.325456 39.6706 0.205612 39.85 0.123848 40.0474C0.0420836 40.2448 0 40.4563 0 40.67L0 45.55Z" fill="#97DE3D"/>
<path d="M32.5361 45.55C30.8104 45.5497 29.1554 44.8641 27.9352 43.6438C26.715 42.4236 26.0293 40.7687 26.0291 39.043H30.9091C31.1227 39.043 31.3343 39.0851 31.5317 39.1669C31.7291 39.2486 31.9084 39.3685 32.0595 39.5195C32.2106 39.6706 32.3304 39.85 32.4122 40.0474C32.494 40.2448 32.5361 40.4563 32.5361 40.67V45.55Z" fill="#97DE3D"/>
<path d="M32.5361 52.058C30.8104 52.0583 29.1554 52.7439 27.9352 53.9642C26.715 55.1844 26.0293 56.8393 26.0291 58.565H30.9091C31.1227 58.565 31.3343 58.5229 31.5317 58.4411C31.7291 58.3594 31.9084 58.2395 32.0595 58.0885C32.2106 57.9374 32.3304 57.758 32.4122 57.5606C32.494 57.3632 32.5361 57.1517 32.5361 56.938V52.058Z" fill="#97DE3D"/>
<path d="M0 52.058V56.938C0 57.3695 0.171416 57.7833 0.476537 58.0885C0.781659 58.3936 1.19549 58.565 1.627 58.565H6.507C6.50673 56.8393 5.82109 55.1844 4.60085 53.9642C3.38061 52.7439 1.72568 52.0583 0 52.058H0Z" fill="#97DE3D"/>
</g>
<defs>
<clipPath id="clip0_2_158">
<rect width="94.355" height="74.833" fill="white"/>
</clipPath>
</defs>
</svg>
